<svg width="126" height="84" viewBox="0 0 126 84" fill="none" xmlns="http://www.w3.org/2000/svg">
<path d="M95.7285 0.179688C100.808 0.179688 105.296 1.26 109.19 3.41895C112.129 5.01583 114.585 7.14287 116.56 9.7998H31C30.7239 9.7998 30.5001 10.0237 30.5 10.2998C30.5 10.5759 30.7239 10.7998 31 10.7998H117.26C117.637 11.3661 117.997 11.9524 118.335 12.5625C120.536 16.4994 121.637 21.1772 121.637 26.5957C121.637 31.972 120.748 36.3324 118.97 39.6768C117.234 42.9787 115.139 45.4554 112.684 47.1064C110.228 48.7574 107.963 49.8156 105.889 50.2812L125.955 84H98.3955L82.7744 55.2256V84H58.1367V21.5156H42.9619V84H18.3877V21.5156H0.290039V0.179688H95.7285ZM82.7744 35.5498H86.8389C89.0824 35.5498 91.22 35.0201 93.252 33.9619C95.3262 32.9036 96.3642 30.7237 96.3643 27.4219C96.3643 24.1199 95.3686 21.9392 93.3789 20.8809C91.3894 19.8227 89.2728 19.2939 87.0293 19.2939H82.7744V35.5498ZM5.42969 0.894531C3.22111 0.89274 1.42931 2.68204 1.42676 4.89062L1.41602 15.6592C1.41383 17.8683 3.20297 19.6619 5.41211 19.6641L18.3691 19.6768C19.2345 19.6776 20.0777 19.3974 20.7705 18.8789L27.9561 13.502C28.8718 12.8166 29.3933 11.8358 29.5244 10.8135L10.6162 10.8125C10.5747 11.0283 10.5103 11.2443 10.4121 11.4521C9.78276 12.7834 8.19172 13.3526 6.86035 12.7236C5.52907 12.0942 4.95959 10.5033 5.58887 9.17188C6.2183 7.84075 7.80832 7.27133 9.13965 7.90039C9.93976 8.27856 10.4603 9.00521 10.6152 9.8125H29.5283C29.4035 8.78274 28.8822 7.79318 27.9619 7.10156L20.7871 1.70996C20.0954 1.19028 19.2529 0.909059 18.3877 0.908203L5.42969 0.894531Z" fill="white"/>
</svg>
